<svg width="100" height="80" viewBox="0 0 100 80" fill="none" xmlns="http://www.w3.org/2000/svg">
<path fill-rule="evenodd" clip-rule="evenodd" d="M62 17C62 23.6274 56.6274 29 50 29C43.3726 29 38 23.6274 38 17C38 10.3726 43.3726 5 50 5C56.6274 5 62 10.3726 62 17ZM29 63C29 69.6274 23.6274 75 17 75C10.3726 75 5 69.6274 5 63C5 56.3726 10.3726 51 17 51C23.6274 51 29 56.3726 29 63ZM83 75C89.6274 75 95 69.6274 95 63C95 56.3726 89.6274 51 83 51C76.3726 51 71 56.3726 71 63C71 69.6274 76.3726 75 83 75Z" fill="url(#paint0_linear_1_465)"/>
<path fill-rule="evenodd" clip-rule="evenodd" d="M26.3281 45.0709L35.6195 30.8347L38.9692 33.0209L29.6778 47.2572L26.3281 45.0709ZM70.5 47.7223L62 32.9999L65.4641 30.9999L73.9641 45.7223L70.5 47.7223ZM37 65.9999L64 65.9999V61.9999L37 61.9999V65.9999Z" fill="#FF4A57"/>
<path fill-rule="evenodd" clip-rule="evenodd" d="M50 33C58.8366 33 66 25.8366 66 17C66 8.16344 58.8366 1 50 1C41.1634 1 34 8.16344 34 17C34 25.8366 41.1634 33 50 33ZM50 34C59.3888 34 67 26.3888 67 17C67 7.61116 59.3888 0 50 0C40.6112 0 33 7.61116 33 17C33 26.3888 40.6112 34 50 34ZM17 79C25.8366 79 33 71.8366 33 63C33 54.1634 25.8366 47 17 47C8.16344 47 1 54.1634 1 63C1 71.8366 8.16344 79 17 79ZM17 80C26.3888 80 34 72.3888 34 63C34 53.6112 26.3888 46 17 46C7.61116 46 0 53.6112 0 63C0 72.3888 7.61116 80 17 80ZM99 63C99 71.8366 91.8366 79 83 79C74.1634 79 67 71.8366 67 63C67 54.1634 74.1634 47 83 47C91.8366 47 99 54.1634 99 63ZM100 63C100 72.3888 92.3888 80 83 80C73.6112 80 66 72.3888 66 63C66 53.6112 73.6112 46 83 46C92.3888 46 100 53.6112 100 63Z" fill="url(#paint1_linear_1_465)"/>
<circle cx="26" cy="49" r="4" fill="#FF4A57"/>
<circle cx="74" cy="49" r="4" fill="#FF4A57"/>
<circle cx="66" cy="64" r="4" fill="#FF4A57"/>
<circle cx="34" cy="64" r="4" fill="#FF4A57"/>
<circle cx="39" cy="29" r="4" fill="#FF4A57"/>
<circle cx="62" cy="29" r="4" fill="#FF4A57"/>
<defs>
<linearGradient id="paint0_linear_1_465" x1="52.8687" y1="-7.70962" x2="23.1958" y2="91.5334" gradientUnits="userSpaceOnUse">
<stop stop-color="#9898AE" stop-opacity="0.943428"/>
<stop offset="1" stop-color="#232330"/>
</linearGradient>
<linearGradient id="paint1_linear_1_465" x1="53.1875" y1="-14.5253" x2="18.4718" y2="98.3584" gradientUnits="userSpaceOnUse">
<stop stop-color="#9898AE" stop-opacity="0.943428"/>
<stop offset="1" stop-color="#232330"/>
</linearGradient>
</defs>
</svg>
