<svg xmlns="http://www.w3.org/2000/svg" xmlns:xlink="http://www.w3.org/1999/xlink" viewBox="0,0,256,256" width="58px" height="58px" fill-rule="nonzero"><g fill="#fff" fill-rule="nonzero" stroke="none" stroke-width="1" stroke-linecap="butt" stroke-linejoin="miter" stroke-miterlimit="10" stroke-dasharray="" stroke-dashoffset="0" font-family="none" font-weight="none" font-size="none" text-anchor="none" style="mix-blend-mode: normal"><g transform="scale(0.54701,0.54701)"><path d="M234,0c-129.235,0 -234,104.766 -234,234c0,129.234 104.765,234 234,234c129.235,0 234,-104.766 234,-234c0,-129.234 -104.765,-234 -234,-234zM233.93164,59.11523c4.25363,-0.00113 8.50784,1.74152 11.46484,5.22852l114.0879,134.51758c6.384,7.527 4.42007,20.14404 -7.66993,24.74805h-43.18554v170.32617c0,8.299 -6.7293,15.02929 -15.0293,15.02929h-119.91992c-8.299,0 -15.0293,-6.72929 -15.0293,-15.02929v-170.32617h-42.46094c-12.09,-4.59801 -14.05668,-17.21219 -7.67968,-24.74219l113.95898,-134.51758c2.9555,-3.4885 7.20927,-5.23325 11.46289,-5.23437zM233.94141,97.30469l-81.53907,96.25h21.27735c8.299,0 15.02734,6.72734 15.02734,15.02734v170.32617h89.86719v-170.32812c0,-8.3 6.72834,-15.02735 15.02734,-15.02735h21.97266z"></path></g></g></svg>