<svg width="37" height="37" viewBox="0 0 37 37" fill="none" xmlns="http://www.w3.org/2000/svg">
<path d="M18.0173 0.720947C8.46451 0.720947 0.720703 8.46476 0.720703 18.0175C0.720703 27.5702 8.46451 35.3141 18.0173 35.3141C27.57 35.3141 35.3138 27.5702 35.3138 18.0175C35.3138 8.46476 27.57 0.720947 18.0173 0.720947ZM13.7832 25.1866H10.2807V13.915H13.7832V25.1866ZM12.0103 12.5312C10.904 12.5312 10.1888 11.7475 10.1888 10.7782C10.1888 9.78903 10.9257 9.0287 12.0554 9.0287C13.185 9.0287 13.8769 9.78903 13.8985 10.7782C13.8985 11.7475 13.185 12.5312 12.0103 12.5312ZM26.5754 25.1866H23.0729V18.94C23.0729 17.486 22.5648 16.4986 21.2982 16.4986C20.3307 16.4986 19.7559 17.1671 19.5019 17.8103C19.4082 18.0391 19.3848 18.3634 19.3848 18.6859V25.1848H15.8804V17.5094C15.8804 16.1023 15.8354 14.9257 15.7885 13.9132H18.8316L18.992 15.4789H19.0623C19.5235 14.7438 20.6532 13.6591 22.5432 13.6591C24.8476 13.6591 26.5754 15.2032 26.5754 18.522V25.1866Z" fill="#FF4A57"/>
</svg>
